<?xml version="1.0" encoding="UTF-8"?>
<svg width="24px" height="24px" viewBox="0 0 24 24" version="1.1" xmlns="http://www.w3.org/2000/svg" xmlns:xlink="http://www.w3.org/1999/xlink">
    <!-- Generator: Sketch 53.2 (72643) - https://sketchapp.com -->
    <title>icon/导出</title>
    <desc>Created with Sketch.</desc>
    <g id="icon/导出" stroke="none" stroke-width="1" fill="none" fill-rule="evenodd">
        <g id="导出" transform="translate(4.000000, 5.000000)" fill="#FFFFFF" fill-rule="nonzero">
            <g id="Group">
                <path d="M14.8321429,7.21964286 C14.5196429,7.21964286 14.2660714,7.47321429 14.2660714,7.78571429 L14.2660714,12.2678571 C14.2660714,12.6839286 13.9267857,13.0232143 13.5107143,13.0232143 L2.49464286,13.0232143 C2.07857143,13.0232143 1.73928571,12.6839286 1.73928571,12.2678571 L1.73928571,1.8875 C1.73928571,1.47142857 2.07857143,1.13214286 2.49464286,1.13214286 L7.32857143,1.13214286 C7.64107143,1.13214286 7.89464286,0.878571429 7.89464286,0.566071429 C7.89464286,0.253571429 7.64285714,0 7.32857143,0 L2.49464286,0 C1.45357143,0 0.607142857,0.846428571 0.607142857,1.8875 L0.607142857,12.2678571 C0.607142857,13.3089286 1.45357143,14.1553571 2.49464286,14.1553571 L13.5107143,14.1553571 C14.5517857,14.1553571 15.3982143,13.3089286 15.3982143,12.2678571 L15.3982143,7.78571429 C15.3982143,7.47321429 15.1446429,7.21964286 14.8321429,7.21964286 Z M3.37678571,10.0160714 C5.13571429,8.35178571 6.91071429,5.77857143 10.05,5.94464286 C10.2714286,5.95714286 10.4446429,6.13035714 10.4446429,6.35357143 L10.4446429,7.44285714 C10.4428571,7.78571429 10.8410714,7.97678571 11.1071429,7.76071429 L15.1767857,4.46964286 C15.3785714,4.30714286 15.3785714,3.99821429 15.175,3.83571429 L11.125,0.192857143 C10.8589286,-0.0214285714 10.4446429,0.167857143 10.4428571,0.508928571 L10.4428571,1.6125 C10.4428571,1.81964286 10.3017857,1.96964286 10.0982143,2.01607143 C4.69642857,3.24821429 3.33035714,9.58035714 3.37678571,10.0160714 Z" id="Shape"></path>
            </g>
        </g>
    </g>
</svg>