<?xml version="1.0" encoding="UTF-8"?>
<svg width="24px" height="24px" viewBox="0 0 24 24" version="1.1" xmlns="http://www.w3.org/2000/svg" xmlns:xlink="http://www.w3.org/1999/xlink">
    <!-- Generator: Sketch 53.2 (72643) - https://sketchapp.com -->
    <title>icon/批量删除</title>
    <desc>Created with Sketch.</desc>
    <g id="icon/批量删除" stroke="none" stroke-width="1" fill="none" fill-rule="evenodd">
        <path d="M14.594016,5.12502385 L16.1566681,5.12502385 C17.0371508,5.12502385 17.7504973,5.83834315 17.7504973,6.71874404 L17.7504973,7.25004769 L5,7.25004769 L5,6.71874404 C5,5.83834315 5.71345556,5.12502385 6.59380195,5.12502385 L8.1560884,5.12502385 L8.3428309,3.7895702 C8.40403874,3.3549019 8.81175488,3 9.25023845,3 L13.5003679,3 C13.9387425,3 14.3465404,3.3549019 14.4072304,3.78916143 L14.594016,5.12502385 Z M13.521318,5.12502385 L13.3727199,4.06252555 L9.37777749,4.06252555 L9.22916208,5.12502385 L13.521318,5.12502385 Z M16.4222655,8.31251874 C17.0064924,8.31251874 17.4417875,8.78871898 17.3888642,9.37076573 L16.5183013,18.941644 C16.4659231,19.5237452 15.9439941,20 15.3597672,20 L7.39073018,20 C6.80661228,20 6.28457428,19.5237452 6.23219607,18.941644 L5.36163313,9.37076573 C5.30870988,8.78871898 5.74397772,8.31251874 6.32817737,8.31251874 L16.4222655,8.31251874 Z M9.25023845,17.8750034 L9.25012945,17.8750034 L9.25012945,10.4375426 L7.1251056,10.4375426 L7.6563275,17.8750034 L9.25023845,17.8750034 Z M15.0941699,17.8750034 L15.6253645,10.4375426 L13.5003679,10.4375426 L13.5003679,17.8750034 L15.0941699,17.8750034 Z M10.3127368,17.8750034 L12.4378424,17.8750034 L12.4378424,10.4375426 L10.3127368,10.4375426 L10.3127368,17.8750034 Z" id="Combined-Shape-Copy" fill="#FFFFFF"></path>
    </g>
</svg>