<?xml version="1.0" encoding="UTF-8"?>
<svg width="24px" height="24px" viewBox="0 0 24 24" version="1.1" xmlns="http://www.w3.org/2000/svg" xmlns:xlink="http://www.w3.org/1999/xlink">
    <!-- Generator: Sketch 53.2 (72643) - https://sketchapp.com -->
    <title>icon/批量修改</title>
    <desc>Created with Sketch.</desc>
    <g id="icon/批量修改" stroke="none" stroke-width="1" fill="none" fill-rule="evenodd">
        <g id="修改" transform="translate(5.000000, 5.000000)" fill-rule="nonzero">
            <g id="Group">
                <rect id="Rectangle" fill="#000000" opacity="0" x="0" y="0" width="15" height="15"></rect>
                <path d="M12.2278711,1.59626953 L14.0278711,2.85663574 L10.7892041,7.48201172 L8.9892041,6.22166016 L12.2278711,1.59626953 Z M9.55272949,7.33117676 L10.4526709,7.96133789 L9.54058594,8.30620605 L8.62850098,8.65110352 L8.64062988,7.67607422 L8.65277344,6.70103027 L9.55272949,7.33117676 Z M14.6876074,0.636269531 L14.0876514,0.216166992 C13.7563037,-0.0158496094 13.2995947,0.0646728516 13.0675781,0.396035156 L13.0479639,0.424042969 L12.9835693,0.516035156 L12.5634668,1.11600586 L13.1634229,1.5361084 L13.7633936,1.95621094 L14.3633496,2.37631348 L14.7834668,1.77634277 L14.8478613,1.68435059 L14.8674756,1.65634277 C15.0994922,1.32498047 15.0189697,0.868286133 14.6876074,0.636269531 L14.6876074,0.636269531 Z M13.0895801,6.97513184 L13.0895801,12.3571582 C13.0895801,13.1661914 12.4337402,13.822002 11.6247363,13.822002 L2.6428418,13.822002 C1.83383789,13.822002 1.17799805,13.1661914 1.17799805,12.3571582 L1.17799805,3.37526367 C1.17799805,2.56624512 1.83382324,1.91041992 2.6428418,1.91041992 L10.1552051,1.91041992 L10.9800293,0.732421875 L1.46484375,0.732421875 C0.655839844,0.732421875 0,1.38824707 0,2.19726562 L0,12.0311865 C0,14.3441748 0.655839844,15 1.46484375,15 L12.8027344,15 C13.6117529,15 14.2675781,14.3441748 14.2675781,13.5351562 L14.2675781,5.29277344 L13.0895801,6.97513184 Z" id="Shape" fill="#FFFFFF"></path>
            </g>
        </g>
    </g>
</svg>