<?xml version="1.0" encoding="UTF-8"?>
<svg width="16px" height="17px" viewBox="0 0 16 17" version="1.1" xmlns="http://www.w3.org/2000/svg" xmlns:xlink="http://www.w3.org/1999/xlink">
    <!-- Generator: Sketch 53.2 (72643) - https://sketchapp.com -->
    <title>icon/新增角色</title>
    <desc>Created with Sketch.</desc>
    <g id="子网管理" stroke="none" stroke-width="1" fill="none" fill-rule="evenodd">
        <g transform="translate(-300.000000, -333.000000)" fill="#FFFFFF" id="成品页面/子网管理">
            <g>
                <g id="Btn/带Icon" transform="translate(280.000000, 325.000000)">
                    <g id="icon/新增角色" transform="translate(16.000000, 5.000000)">
                        <path d="M8.2105577,8.05268568 C7.7454866,8.05268568 7.36842971,8.42966034 7.36842971,8.89473143 C7.36842971,9.35980253 7.7454866,9.73685942 8.2105577,9.73685942 L14.9474171,9.73685942 C15.4124882,9.73685942 15.7895451,9.35980253 15.7895451,8.89473143 C15.7895451,8.42966034 15.4124882,8.05268568 14.9474171,8.05268568 L8.2105577,8.05268568 Z M11.5789874,13.1052686 L8.2105577,13.1052686 C7.7454866,13.1052686 7.36842971,13.4823255 7.36842971,13.9473966 C7.36842971,14.4124677 7.7454866,14.7895245 8.2105577,14.7895245 L11.5789874,14.7895245 C12.0440585,14.7895245 12.4211154,14.4124677 12.4211154,13.9473966 C12.4211154,13.4823255 12.0440585,13.1052686 11.5789874,13.1052686 L11.5789874,13.1052686 Z M11.5789874,18.1579543 L6.36633009,18.1579543 C5.98958159,18.1579543 5.68425597,17.8525464 5.68425597,17.4757979 L5.68425597,5.36633009 C5.68425597,5.18538802 5.75604892,5.01190895 5.88398922,4.88398922 C6.01190895,4.75604892 6.18538802,4.68425597 6.36633009,4.68425597 L16.7916447,4.68425597 C17.1683727,4.68425597 17.4737188,4.98958159 17.4737188,5.36633009 L17.4737188,11.9852821 C17.4737188,12.2861258 17.6342456,12.5641488 17.8947726,12.7145603 C18.1552995,12.8649925 18.4762913,12.8649925 18.7369005,12.7145603 C18.9974275,12.5641488 19.1579543,12.2861258 19.1579543,11.9852821 L19.1579543,5.36633009 C19.1579543,4.0594394 18.0985149,3 16.7916447,3 L6.36633009,3 C5.0594394,3 4,4.0594394 4,5.36633009 L4,17.4757979 C4,18.1034311 4.24928107,18.7052624 4.69307333,19.1490547 C5.13686559,19.5928469 5.7386969,19.842128 6.36633009,19.842128 L11.5789874,19.842128 C12.0440585,19.842128 12.4211154,19.4651533 12.4211154,19 C12.4211154,18.5349289 12.0440585,18.1579543 11.5789874,18.1579543 L11.5789874,18.1579543 Z M19.1579543,16.4736983 L18.3158468,16.4736983 L18.3158468,15.6315703 C18.3158468,15.1664992 17.9387899,14.7895245 17.4737188,14.7895245 C17.0086272,14.7895245 16.6315909,15.1664992 16.6315909,15.6315703 L16.6315909,16.4736983 L15.7895451,16.4736983 C15.324474,16.4736983 14.9474171,16.8507552 14.9474171,17.3158263 C14.9474171,17.7808974 15.324474,18.1579543 15.7895451,18.1579543 L16.6315909,18.1579543 L16.6315909,19 C16.6315909,19.4651533 17.0086272,19.842128 17.4737188,19.842128 C17.9387899,19.842128 18.3158468,19.4651533 18.3158468,19 L18.3158468,18.1579543 L19.1579543,18.1579543 C19.6230459,18.1579543 20,17.7808974 20,17.3158263 C20,16.8507552 19.6230459,16.4736983 19.1579543,16.4736983 L19.1579543,16.4736983 Z" id="Fill-1"></path>
                    </g>
                </g>
            </g>
        </g>
    </g>
</svg>