<?xml version="1.0" encoding="UTF-8"?>
<svg width="11px" height="11px" viewBox="0 0 11 11" version="1.1" xmlns="http://www.w3.org/2000/svg" xmlns:xlink="http://www.w3.org/1999/xlink">
    <!-- Generator: Sketch 53.2 (72643) - https://sketchapp.com -->
    <title>icon delete copy</title>
    <desc>Created with Sketch.</desc>
    <g id="子网管理" stroke="none" stroke-width="1" fill="none" fill-rule="evenodd">
        <g id="子网管理弹窗/新增" transform="translate(-401.000000, -264.000000)" fill="#FD6360">
            <g id="列表字段/地址段列表01-copy-6" transform="translate(263.000000, 250.000000)">
                <g id="icon/delete" transform="translate(138.000000, 14.000000)">
                    <path d="M5.50470882,4.55671077 L9.32472183,0.736697762 C9.59479852,0.466621076 10.0305901,0.464531792 10.3022911,0.736232848 C10.572111,1.00605277 10.5724067,1.44322163 10.3018262,1.71380213 L6.48181319,5.53381514 L10.3018262,9.35382815 C10.5719029,9.62390484 10.5739922,10.0596964 10.3022911,10.3313974 C10.0324712,10.6012174 9.59530233,10.601513 9.32472183,10.3309325 L5.50470882,6.51091951 L1.68469581,10.3309325 C1.41461912,10.6010092 0.978827583,10.6030985 0.707126527,10.3313974 C0.437306607,10.0615775 0.437010941,9.62440866 0.707591442,9.35382815 L4.52760445,5.53381514 L0.707591442,1.71380213 C0.437514756,1.44372544 0.435425472,1.0079339 0.707126527,0.736232848 C0.976946448,0.466412927 1.41411531,0.466117261 1.68469581,0.736697762 L5.50470882,4.55671077 Z" id="icon-delete-copy"></path>
                </g>
            </g>
        </g>
    </g>
</svg>